<svg xmlns="http://www.w3.org/2000/svg" width="900" height="1169" viewBox="0 0 900 1169">
<rect width="900" height="1169" fill="#1E1F24"/>
<rect x="0.0" y="0.0" width="900.0" height="1169.0" rx="10" fill="#1E1F24"/>
<rect x="0.0" y="0.0" width="212.0" height="1169.0" rx="0" fill="#191A1F"/>
<ellipse cx="19.5" cy="21.5" rx="5.5" ry="5.5" fill="#FF5F57"/>
<ellipse cx="37.5" cy="21.5" rx="5.5" ry="5.5" fill="#FEBC2E"/>
<ellipse cx="55.5" cy="21.5" rx="5.5" ry="5.5" fill="#28C840"/>
<rect x="12.0" y="43.0" width="188.0" height="30.0" rx="7" fill="#26272D"/>
<rect x="22.9" y="53.5" width="9.1" height="9.1" rx="2" fill="none" stroke="#90919A" stroke-width="1" stroke-dasharray="2 2"/>
<text x="40.0" y="62.2" font-family="Inter" font-size="12" font-weight="normal" letter-spacing="0" fill="#90919A">搜索设置</text>
<text x="21.0" y="100.0" font-family="Inter" font-size="10" font-weight="normal" letter-spacing="1" fill="#90919A">显示</text>
<rect x="23.2" y="118.2" width="10.5" height="10.5" rx="2" fill="none" stroke="#A6A7AF" stroke-width="1" stroke-dasharray="2 2"/>
<text x="45.0" y="128.3" font-family="Inter" font-size="13" font-weight="normal" letter-spacing="0" fill="#A6A7AF">菜单栏</text>
<rect x="12.0" y="141.0" width="188.0" height="31.0" rx="6" fill="#0A84FF"/>
<rect x="23.2" y="151.2" width="10.5" height="10.5" rx="2" fill="none" stroke="#FFFFFF" stroke-width="1" stroke-dasharray="2 2"/>
<text x="45.0" y="161.3" font-family="Inter" font-size="13" font-weight="normal" letter-spacing="0" fill="#FFFFFF">面板</text>
<rect x="23.2" y="184.2" width="10.5" height="10.5" rx="2" fill="none" stroke="#A6A7AF" stroke-width="1" stroke-dasharray="2 2"/>
<text x="45.0" y="194.3" font-family="Inter" font-size="13" font-weight="normal" letter-spacing="0" fill="#A6A7AF">日历</text>
<text x="21.0" y="232.0" font-family="Inter" font-size="10" font-weight="normal" letter-spacing="1" fill="#90919A">交互与动作</text>
<rect x="23.2" y="250.2" width="10.5" height="10.5" rx="2" fill="none" stroke="#A6A7AF" stroke-width="1" stroke-dasharray="2 2"/>
<text x="45.0" y="260.3" font-family="Inter" font-size="13" font-weight="normal" letter-spacing="0" fill="#A6A7AF">触控板</text>
<rect x="23.2" y="283.2" width="10.5" height="10.5" rx="2" fill="none" stroke="#A6A7AF" stroke-width="1" stroke-dasharray="2 2"/>
<text x="45.0" y="293.3" font-family="Inter" font-size="13" font-weight="normal" letter-spacing="0" fill="#A6A7AF">快捷键</text>
<rect x="23.2" y="316.2" width="10.5" height="10.5" rx="2" fill="none" stroke="#A6A7AF" stroke-width="1" stroke-dasharray="2 2"/>
<text x="45.0" y="326.3" font-family="Inter" font-size="13" font-weight="normal" letter-spacing="0" fill="#A6A7AF">动作库</text>
<text x="21.0" y="364.0" font-family="Inter" font-size="10" font-weight="normal" letter-spacing="1" fill="#90919A">提醒</text>
<rect x="23.2" y="382.2" width="10.5" height="10.5" rx="2" fill="none" stroke="#A6A7AF" stroke-width="1" stroke-dasharray="2 2"/>
<text x="45.0" y="392.3" font-family="Inter" font-size="13" font-weight="normal" letter-spacing="0" fill="#A6A7AF">提醒规则</text>
<text x="21.0" y="430.0" font-family="Inter" font-size="10" font-weight="normal" letter-spacing="1" fill="#90919A">系统</text>
<rect x="23.2" y="448.2" width="10.5" height="10.5" rx="2" fill="none" stroke="#A6A7AF" stroke-width="1" stroke-dasharray="2 2"/>
<text x="45.0" y="458.3" font-family="Inter" font-size="13" font-weight="normal" letter-spacing="0" fill="#A6A7AF">电源</text>
<rect x="23.2" y="481.2" width="10.5" height="10.5" rx="2" fill="none" stroke="#A6A7AF" stroke-width="1" stroke-dasharray="2 2"/>
<text x="45.0" y="491.3" font-family="Inter" font-size="13" font-weight="normal" letter-spacing="0" fill="#A6A7AF">时间与区域</text>
<rect x="23.2" y="514.2" width="10.5" height="10.5" rx="2" fill="none" stroke="#A6A7AF" stroke-width="1" stroke-dasharray="2 2"/>
<text x="45.0" y="524.3" font-family="Inter" font-size="13" font-weight="normal" letter-spacing="0" fill="#A6A7AF">通用</text>
<rect x="23.2" y="547.2" width="10.5" height="10.5" rx="2" fill="none" stroke="#A6A7AF" stroke-width="1" stroke-dasharray="2 2"/>
<text x="45.0" y="557.3" font-family="Inter" font-size="13" font-weight="normal" letter-spacing="0" fill="#A6A7AF">关于</text>
<rect x="238.6" y="26.1" width="11.9" height="11.9" rx="2" fill="none" stroke="#A6A7AF" stroke-width="1" stroke-dasharray="2 2"/>
<text x="261.0" y="38.9" font-family="Inter" font-size="19" font-weight="600" letter-spacing="0" fill="#F5F5F7">面板</text>
<text x="236.0" y="63.2" font-family="Inter" font-size="12" font-weight="normal" letter-spacing="0" fill="#A6A7AF">弹窗的标签与状态卡片，以及指标采样策略。</text>
<rect x="776.8" y="31.0" width="99.2" height="24.0" rx="12" fill="#26272D"/>
<ellipse cx="790.3" cy="43.0" rx="3.5" ry="3.5" fill="#32D74B"/>
<text x="799.8" y="47.1" font-family="Inter" font-size="11" font-weight="normal" letter-spacing="0" fill="#A6A7AF">每 1.5 秒采样</text>
<rect x="236.0" y="82.0" width="640.0" height="243.0" rx="10" fill="#26272D"/>
<text x="250.0" y="108.3" font-family="Inter" font-size="13" font-weight="600" letter-spacing="0" fill="#F5F5F7">弹窗标签</text>
<text x="250.0" y="128.1" font-family="Inter" font-size="11" font-weight="normal" letter-spacing="0" fill="#90919A">第一个标签在打开面板时显示；左右滑动按此顺序切换。</text>
<rect x="747.2" y="102.0" width="114.8" height="22.0" rx="5" fill="#2F3037"/>
<text x="755.2" y="117.1" font-family="Inter" font-size="11" font-weight="t" letter-spacing="0" fill="#90919A">4 个标签 · 全部显示</text>
<rect x="236.0" y="132.0" width="640.0" height="30.0" rx="0" fill="#1B1C21"/>
<text x="250.0" y="151.1" font-family="Inter" font-size="11" font-weight="h" letter-spacing="0" fill="#90919A">标签</text>
<text x="562.0" y="151.1" font-family="Inter" font-size="11" font-weight="h" letter-spacing="0" fill="#90919A">说明</text>
<text x="774.0" y="151.1" font-family="Inter" font-size="11" font-weight="h" letter-spacing="0" fill="#90919A">顺序</text>
<rect x="251.9" y="177.4" width="9.1" height="9.1" rx="2" fill="none" stroke="#90919A" stroke-width="1" stroke-dasharray="2 2"/>
<text x="271.0" y="186.8" font-family="Inter" font-size="12.5" font-weight="500" letter-spacing="0" fill="#F5F5F7">状态</text>
<text x="562.0" y="186.1" font-family="Inter" font-size="11" font-weight="d" letter-spacing="0" fill="#90919A">CPU / 内存 / 磁盘 / 网络 + 快捷操作</text>
<rect x="774.0" y="171.0" width="88.0" height="22.0" rx="5" fill="#0A84FF" fill-opacity="0.149"/>
<text x="782.0" y="186.1" font-family="Inter" font-size="11" font-weight="t" letter-spacing="0" fill="#0A84FF">默认打开</text>
<rect x="236.0" y="202.0" width="640.0" height="1.0" rx="0" fill="#3A3B42"/>
<rect x="251.9" y="216.4" width="9.1" height="9.1" rx="2" fill="none" stroke="#90919A" stroke-width="1" stroke-dasharray="2 2"/>
<text x="271.0" y="225.8" font-family="Inter" font-size="12.5" font-weight="500" letter-spacing="0" fill="#F5F5F7">日历</text>
<text x="562.0" y="225.1" font-family="Inter" font-size="11" font-weight="d" letter-spacing="0" fill="#90919A">月视图与近期事件</text>
<rect x="775.8" y="216.8" width="8.4" height="8.4" rx="2" fill="none" stroke="#90919A" stroke-width="1" stroke-dasharray="2 2"/>
<rect x="236.0" y="239.0" width="640.0" height="1.0" rx="0" fill="#3A3B42"/>
<rect x="251.9" y="253.4" width="9.1" height="9.1" rx="2" fill="none" stroke="#90919A" stroke-width="1" stroke-dasharray="2 2"/>
<text x="271.0" y="262.8" font-family="Inter" font-size="12.5" font-weight="500" letter-spacing="0" fill="#F5F5F7">电源</text>
<text x="562.0" y="262.1" font-family="Inter" font-size="11" font-weight="d" letter-spacing="0" fill="#90919A">能耗与唤醒</text>
<rect x="775.8" y="253.8" width="8.4" height="8.4" rx="2" fill="none" stroke="#90919A" stroke-width="1" stroke-dasharray="2 2"/>
<rect x="236.0" y="276.0" width="640.0" height="1.0" rx="0" fill="#3A3B42"/>
<rect x="251.9" y="290.4" width="9.1" height="9.1" rx="2" fill="none" stroke="#90919A" stroke-width="1" stroke-dasharray="2 2"/>
<text x="271.0" y="299.8" font-family="Inter" font-size="12.5" font-weight="500" letter-spacing="0" fill="#F5F5F7">操作</text>
<text x="562.0" y="299.1" font-family="Inter" font-size="11" font-weight="d" letter-spacing="0" fill="#90919A">固定动作与搜索</text>
<rect x="775.8" y="290.8" width="8.4" height="8.4" rx="2" fill="none" stroke="#90919A" stroke-width="1" stroke-dasharray="2 2"/>
<rect x="236.0" y="339.0" width="640.0" height="195.0" rx="10" fill="#26272D"/>
<text x="250.0" y="365.3" font-family="Inter" font-size="13" font-weight="600" letter-spacing="0" fill="#F5F5F7">状态卡片</text>
<text x="250.0" y="385.1" font-family="Inter" font-size="11" font-weight="normal" letter-spacing="0" fill="#90919A">固定渲染，不提供显隐与排序；风扇卡只出现在有风扇的 Mac 上。</text>
<rect x="250.0" y="399.0" width="147.0" height="54.0" rx="9" fill="#1B1C21"/>
<rect x="318.2" y="410.2" width="10.5" height="10.5" rx="2" fill="none" stroke="#A6A7AF" stroke-width="1" stroke-dasharray="2 2"/>
<text x="313.3" y="440.1" font-family="Inter" font-size="11" font-weight="l" letter-spacing="0" fill="#A6A7AF">CPU</text>
<rect x="405.0" y="399.0" width="147.0" height="54.0" rx="9" fill="#1B1C21"/>
<rect x="473.2" y="410.2" width="10.5" height="10.5" rx="2" fill="none" stroke="#A6A7AF" stroke-width="1" stroke-dasharray="2 2"/>
<text x="467.5" y="440.1" font-family="Inter" font-size="11" font-weight="l" letter-spacing="0" fill="#A6A7AF">内存</text>
<rect x="560.0" y="399.0" width="147.0" height="54.0" rx="9" fill="#1B1C21"/>
<rect x="628.2" y="410.2" width="10.5" height="10.5" rx="2" fill="none" stroke="#A6A7AF" stroke-width="1" stroke-dasharray="2 2"/>
<text x="622.5" y="440.1" font-family="Inter" font-size="11" font-weight="l" letter-spacing="0" fill="#A6A7AF">磁盘</text>
<rect x="715.0" y="399.0" width="147.0" height="54.0" rx="9" fill="#1B1C21"/>
<rect x="783.2" y="410.2" width="10.5" height="10.5" rx="2" fill="none" stroke="#A6A7AF" stroke-width="1" stroke-dasharray="2 2"/>
<text x="777.5" y="440.1" font-family="Inter" font-size="11" font-weight="l" letter-spacing="0" fill="#A6A7AF">网络</text>
<rect x="236.0" y="463.0" width="640.0" height="1.0" rx="0" fill="#3A3B42"/>
<text x="250.0" y="488.3" font-family="Inter" font-size="13" font-weight="500" letter-spacing="0" fill="#F5F5F7">完整指标</text>
<text x="250.0" y="508.1" font-family="Inter" font-size="11" font-weight="normal" letter-spacing="0" fill="#90919A">面板卡片是只读镜像；详情、历史与图表在仪表盘。</text>
<text x="790.0" y="497.2" font-family="Inter" font-size="12" font-weight="normal" letter-spacing="0" fill="#0A84FF">在仪表盘查看</text>
<rect x="236.0" y="548.0" width="640.0" height="488.0" rx="10" fill="#26272D"/>
<text x="250.0" y="574.3" font-family="Inter" font-size="13" font-weight="600" letter-spacing="0" fill="#F5F5F7">指标采样</text>
<text x="250.0" y="594.1" font-family="Inter" font-size="11" font-weight="normal" letter-spacing="0" fill="#90919A">采样只在「状态」标签可见时运行；隐藏面板即停止。</text>
<text x="250.0" y="622.3" font-family="Inter" font-size="13" font-weight="500" letter-spacing="0" fill="#F5F5F7">按电池电量自适应采样</text>
<text x="250.0" y="642.1" font-family="Inter" font-size="11" font-weight="normal" letter-spacing="0" fill="#90919A">外接电源时最快，电量下降时自动放慢，久坐电池更省电。</text>
<rect x="826.0" y="617.0" width="36.0" height="20.0" rx="10" fill="#0A84FF"/>
<ellipse cx="836.0" cy="627.0" rx="8.0" ry="8.0" fill="#FFFFFF"/>
<rect x="236.0" y="656.0" width="640.0" height="1.0" rx="0" fill="#3A3B42"/>
<text x="250.0" y="697.8" font-family="Inter" font-size="13" font-weight="500" letter-spacing="0" fill="#F5F5F7">当前</text>
<rect x="764.9" y="667.0" width="75.0" height="22.0" rx="5" fill="#2F3037"/>
<rect x="774.5" y="674.1" width="7.7" height="7.7" rx="2" fill="none" stroke="#A6A7AF" stroke-width="1" stroke-dasharray="2 2"/>
<text x="787.9" y="682.1" font-family="Inter" font-size="11" font-weight="t" letter-spacing="0" fill="#A6A7AF">外接电源</text>
<rect x="742.8" y="697.0" width="119.2" height="22.0" rx="5" fill="#0A84FF" fill-opacity="0.149"/>
<rect x="752.4" y="704.1" width="7.7" height="7.7" rx="2" fill="none" stroke="#0A84FF" stroke-width="1" stroke-dasharray="2 2"/>
<text x="765.8" y="712.1" font-family="Inter" font-size="11" font-weight="t" letter-spacing="0" fill="#0A84FF">每 1.5 秒采样一次</text>
<rect x="236.0" y="729.0" width="640.0" height="1.0" rx="0" fill="#3A3B42"/>
<text x="250.0" y="754.3" font-family="Inter" font-size="13" font-weight="500" letter-spacing="0" fill="#F5F5F7">外接电源 / 满电</text>
<text x="250.0" y="774.1" font-family="Inter" font-size="11" font-weight="normal" letter-spacing="0" fill="#90919A">0.5–30 秒，步进 0.5 秒。</text>
<text x="804.4" y="763.2" font-family="Inter" font-size="12" font-weight="value" letter-spacing="0" fill="#F5F5F7">1.5 秒</text>
<rect x="844.0" y="747.0" width="18.0" height="24.0" rx="5" fill="#1B1C21"/>
<rect x="844.0" y="747.0" width="18.0" height="24.0" rx="5" fill="none" stroke="#3A3B42" stroke-width="1"/>
<rect x="845.6" y="749.1" width="7.7" height="7.7" rx="2" fill="none" stroke="#A6A7AF" stroke-width="1" stroke-dasharray="2 2"/>
<rect x="845.6" y="761.1" width="7.7" height="7.7" rx="2" fill="none" stroke="#A6A7AF" stroke-width="1" stroke-dasharray="2 2"/>
<rect x="236.0" y="788.0" width="640.0" height="1.0" rx="0" fill="#3A3B42"/>
<text x="250.0" y="813.3" font-family="Inter" font-size="13" font-weight="500" letter-spacing="0" fill="#F5F5F7">低电量</text>
<text x="250.0" y="833.1" font-family="Inter" font-size="11" font-weight="normal" letter-spacing="0" fill="#90919A">0.5–30 秒；不得小于最快间隔。</text>
<text x="808.0" y="822.2" font-family="Inter" font-size="12" font-weight="value" letter-spacing="0" fill="#F5F5F7">10 秒</text>
<rect x="844.0" y="806.0" width="18.0" height="24.0" rx="5" fill="#1B1C21"/>
<rect x="844.0" y="806.0" width="18.0" height="24.0" rx="5" fill="none" stroke="#3A3B42" stroke-width="1"/>
<rect x="845.6" y="808.1" width="7.7" height="7.7" rx="2" fill="none" stroke="#A6A7AF" stroke-width="1" stroke-dasharray="2 2"/>
<rect x="845.6" y="820.1" width="7.7" height="7.7" rx="2" fill="none" stroke="#A6A7AF" stroke-width="1" stroke-dasharray="2 2"/>
<rect x="236.0" y="847.0" width="640.0" height="1.0" rx="0" fill="#3A3B42"/>
<text x="250.0" y="872.3" font-family="Inter" font-size="13" font-weight="500" letter-spacing="0" fill="#F5F5F7">全速高于</text>
<text x="250.0" y="892.1" font-family="Inter" font-size="11" font-weight="normal" letter-spacing="0" fill="#90919A">5%–95%；必须高于低电量阈值。</text>
<text x="817.3" y="881.2" font-family="Inter" font-size="12" font-weight="value" letter-spacing="0" fill="#F5F5F7">60%</text>
<rect x="844.0" y="865.0" width="18.0" height="24.0" rx="5" fill="#1B1C21"/>
<rect x="844.0" y="865.0" width="18.0" height="24.0" rx="5" fill="none" stroke="#3A3B42" stroke-width="1"/>
<rect x="845.6" y="867.1" width="7.7" height="7.7" rx="2" fill="none" stroke="#A6A7AF" stroke-width="1" stroke-dasharray="2 2"/>
<rect x="845.6" y="879.1" width="7.7" height="7.7" rx="2" fill="none" stroke="#A6A7AF" stroke-width="1" stroke-dasharray="2 2"/>
<rect x="236.0" y="906.0" width="640.0" height="1.0" rx="0" fill="#3A3B42"/>
<text x="250.0" y="931.3" font-family="Inter" font-size="13" font-weight="500" letter-spacing="0" fill="#F5F5F7">最慢低于</text>
<text x="250.0" y="951.1" font-family="Inter" font-size="11" font-weight="normal" letter-spacing="0" fill="#90919A">5%–95%；必须低于全速阈值。</text>
<text x="817.3" y="940.2" font-family="Inter" font-size="12" font-weight="value" letter-spacing="0" fill="#F5F5F7">20%</text>
<rect x="844.0" y="924.0" width="18.0" height="24.0" rx="5" fill="#1B1C21"/>
<rect x="844.0" y="924.0" width="18.0" height="24.0" rx="5" fill="none" stroke="#3A3B42" stroke-width="1"/>
<rect x="845.6" y="926.1" width="7.7" height="7.7" rx="2" fill="none" stroke="#A6A7AF" stroke-width="1" stroke-dasharray="2 2"/>
<rect x="845.6" y="938.1" width="7.7" height="7.7" rx="2" fill="none" stroke="#A6A7AF" stroke-width="1" stroke-dasharray="2 2"/>
<rect x="236.0" y="965.0" width="640.0" height="1.0" rx="0" fill="#3A3B42"/>
<text x="250.0" y="990.3" font-family="Inter" font-size="13" font-weight="500" letter-spacing="0" fill="#F5F5F7">自适应关闭时</text>
<text x="250.0" y="1010.1" font-family="Inter" font-size="11" font-weight="normal" letter-spacing="0" fill="#90919A">以上四项不生效，面板按固定间隔采样。</text>
<rect x="790.8" y="984.0" width="71.2" height="22.0" rx="5" fill="#2F3037"/>
<text x="798.8" y="999.1" font-family="Inter" font-size="11" font-weight="t" letter-spacing="0" fill="#90919A">固定 1.5 秒</text>
<rect x="236.0" y="1050.0" width="640.0" height="101.0" rx="10" fill="#1B1C21"/>
<text x="250.0" y="1076.3" font-family="Inter" font-size="13" font-weight="600" letter-spacing="0" fill="#F5F5F7">动效已移至「通用 › 外观」</text>
<text x="250.0" y="1105.3" font-family="Inter" font-size="13" font-weight="500" letter-spacing="0" fill="#F5F5F7">动画效果</text>
<text x="250.0" y="1125.1" font-family="Inter" font-size="11" font-weight="normal" letter-spacing="0" fill="#90919A">它影响整个应用与设置窗口，不属于面板。</text>
<text x="790.0" y="1114.2" font-family="Inter" font-size="12" font-weight="normal" letter-spacing="0" fill="#0A84FF">前往「通用」</text>
<line x1="0" y1="680" x2="900" y2="680" stroke="#FF453A" stroke-width="1" stroke-dasharray="6 4"/>
<text x="892" y="674" font-family="Inter" font-size="10" fill="#FF453A" text-anchor="end">window bottom (680)</text>
</svg>