<svg xmlns="http://www.w3.org/2000/svg" width="360" height="620" viewBox="0 0 360 620">
<rect width="360" height="620" fill="#1E1F24"/>
<rect x="0.0" y="0.0" width="360.0" height="620.0" rx="12" fill="#1E1F24"/>
<rect x="14.0" y="12.0" width="194.0" height="31.0" rx="7" fill="#1B1C21"/>
<text x="27.0" y="32.2" font-family="Inter" font-size="12" font-weight="l" letter-spacing="0" fill="#A6A7AF">状态</text>
<text x="75.0" y="32.2" font-family="Inter" font-size="12" font-weight="l" letter-spacing="0" fill="#A6A7AF">日历</text>
<text x="123.0" y="32.2" font-family="Inter" font-size="12" font-weight="l" letter-spacing="0" fill="#A6A7AF">电源</text>
<rect x="160.0" y="14.0" width="46.0" height="27.0" rx="5" fill="#0A84FF"/>
<text x="171.0" y="32.2" font-family="Inter" font-size="12" font-weight="l" letter-spacing="0" fill="#FFFFFF">操作</text>
<rect x="14.0" y="55.0" width="332.0" height="31.0" rx="8" fill="#26272D"/>
<rect x="25.9" y="66.0" width="9.1" height="9.1" rx="2" fill="none" stroke="#90919A" stroke-width="1" stroke-dasharray="2 2"/>
<text x="43.0" y="75.2" font-family="Inter" font-size="12" font-weight="t" letter-spacing="0" fill="#90919A">搜索动作</text>
<text x="26.0" y="109.5" font-family="Inter" font-size="10.5" font-weight="t" letter-spacing="0" fill="#90919A">显示与屏幕</text>
<rect x="14.0" y="124.0" width="332.0" height="53.0" rx="9" fill="#26272D"/>
<rect x="28.2" y="145.2" width="10.5" height="10.5" rx="2" fill="none" stroke="#A6A7AF" stroke-width="1" stroke-dasharray="2 2"/>
<text x="51.0" y="147.8" font-family="Inter" font-size="12.5" font-weight="500" letter-spacing="0" fill="#F5F5F7">关闭显示器</text>
<text x="51.0" y="164.6" font-family="Inter" font-size="10.5" font-weight="s" letter-spacing="0" fill="#90919A">按钮 · 立即执行</text>
<rect x="14.0" y="187.0" width="332.0" height="53.0" rx="9" fill="#26272D"/>
<rect x="28.2" y="208.2" width="10.5" height="10.5" rx="2" fill="none" stroke="#0A84FF" stroke-width="1" stroke-dasharray="2 2"/>
<text x="51.0" y="210.8" font-family="Inter" font-size="12.5" font-weight="500" letter-spacing="0" fill="#F5F5F7">深色模式</text>
<text x="51.0" y="227.6" font-family="Inter" font-size="10.5" font-weight="s" letter-spacing="0" fill="#90919A">开关 · 当前已开启</text>
<rect x="285.0" y="203.0" width="49.0" height="21.0" rx="5" fill="#2F3037"/>
<text x="293.0" y="218.1" font-family="Inter" font-size="11" font-weight="t" letter-spacing="0" fill="#90919A">已开启</text>
<rect x="14.0" y="250.0" width="332.0" height="53.0" rx="9" fill="#26272D"/>
<rect x="28.2" y="271.2" width="10.5" height="10.5" rx="2" fill="none" stroke="#A6A7AF" stroke-width="1" stroke-dasharray="2 2"/>
<text x="51.0" y="273.8" font-family="Inter" font-size="12.5" font-weight="500" letter-spacing="0" fill="#F5F5F7">保持屏幕常亮</text>
<text x="51.0" y="290.5" font-family="Inter" font-size="10.5" font-weight="s" letter-spacing="0" fill="#90919A">开关 · 当前已关闭</text>
<text x="26.0" y="332.5" font-family="Inter" font-size="10.5" font-weight="t" letter-spacing="0" fill="#90919A">系统</text>
<rect x="14.0" y="353.0" width="332.0" height="53.0" rx="9" fill="#26272D"/>
<rect x="28.2" y="374.2" width="10.5" height="10.5" rx="2" fill="none" stroke="#FF453A" stroke-width="1" stroke-dasharray="2 2"/>
<text x="51.0" y="376.8" font-family="Inter" font-size="12.5" font-weight="500" letter-spacing="0" fill="#F5F5F7">清空废纸篓</text>
<text x="51.0" y="393.5" font-family="Inter" font-size="10.5" font-weight="s" letter-spacing="0" fill="#90919A">破坏性 · 运行前确认</text>
<rect x="14.0" y="416.0" width="332.0" height="53.0" rx="9" fill="#26272D"/>
<rect x="28.2" y="437.2" width="10.5" height="10.5" rx="2" fill="none" stroke="#FFD60A" stroke-width="1" stroke-dasharray="2 2"/>
<text x="51.0" y="439.8" font-family="Inter" font-size="12.5" font-weight="500" letter-spacing="0" fill="#F5F5F7">隐藏刘海</text>
<text x="51.0" y="456.5" font-family="Inter" font-size="10.5" font-weight="s" letter-spacing="0" fill="#90919A">此设备不可用</text>
<rect x="0.0" y="584.0" width="360.0" height="1.0" rx="0" fill="#3A3B42"/>
<rect x="15.8" y="598.3" width="8.4" height="8.4" rx="2" fill="none" stroke="#90919A" stroke-width="1" stroke-dasharray="2 2"/>
<text x="32.0" y="607.1" font-family="Inter" font-size="11" font-weight="t" letter-spacing="0" fill="#90919A">已运行 3 天 4 小时</text>
<rect x="304.2" y="597.2" width="10.5" height="10.5" rx="2" fill="none" stroke="#A6A7AF" stroke-width="1" stroke-dasharray="2 2"/>
<rect x="333.2" y="597.2" width="10.5" height="10.5" rx="2" fill="none" stroke="#A6A7AF" stroke-width="1" stroke-dasharray="2 2"/>
</svg>